<?xml version="1.0" encoding="UTF-8" standalone="no"?>
<!-- Created with Inkscape (http://www.inkscape.org/) -->

<svg
   xmlns:dc="http://purl.org/dc/elements/1.1/"
   xmlns:cc="http://creativecommons.org/ns#"
   xmlns:rdf="http://www.w3.org/1999/02/22-rdf-syntax-ns#"
   xmlns:svg="http://www.w3.org/2000/svg"
   xmlns="http://www.w3.org/2000/svg"
   xmlns:sodipodi="http://sodipodi.sourceforge.net/DTD/sodipodi-0.dtd"
   xmlns:inkscape="http://www.inkscape.org/namespaces/inkscape"
   width="80mm"
   height="80mm"
   viewBox="0 0 80 80"
   version="1.1"
   id="svg8"
   inkscape:version="0.92.4 (5da689c313, 2019-01-14)"
   sodipodi:docname="ico.svg"
   inkscape:export-filename="/home/matthis/Dokumente/hx-lang/resources/ico.png"
   inkscape:export-xdpi="960"
   inkscape:export-ydpi="960">
  <defs
     id="defs2" />
  <sodipodi:namedview
     id="base"
     pagecolor="#ffffff"
     bordercolor="#666666"
     borderopacity="1.0"
     inkscape:pageopacity="0.0"
     inkscape:pageshadow="2"
     inkscape:zoom="0.35"
     inkscape:cx="131.22943"
     inkscape:cy="-40.590872"
     inkscape:document-units="mm"
     inkscape:current-layer="layer1"
     showgrid="false"
     fit-margin-top="5"
     fit-margin-left="5"
     fit-margin-right="5"
     fit-margin-bottom="5"
     inkscape:window-width="1920"
     inkscape:window-height="977"
     inkscape:window-x="0"
     inkscape:window-y="25"
     inkscape:window-maximized="1" />
  <metadata
     id="metadata5">
    <rdf:RDF>
      <cc:Work
         rdf:about="">
        <dc:format>image/svg+xml</dc:format>
        <dc:type
           rdf:resource="http://purl.org/dc/dcmitype/StillImage" />
        <dc:title></dc:title>
      </cc:Work>
    </rdf:RDF>
  </metadata>
  <g
     inkscape:label="Ebene 1"
     inkscape:groupmode="layer"
     id="layer1"
     transform="translate(210.48004,17.879554)">
    <path
       style="opacity:1;fill:#000000;fill-opacity:1;stroke:#000000;stroke-width:0.26458332;stroke-linecap:butt;stroke-linejoin:round;stroke-miterlimit:4;stroke-dasharray:none;stroke-opacity:1"
       id="path845"
       d="m -196.81582,-6.3498404 c -0.0751,-0.9853858 -0.0983,-1.9755733 8e-4,-2.9591947 0.3759,-1.8395129 1.16269,-2.1917009 3.53916,-1.6334999 0.5735,0.134707 1.70435,2.9890037 1.89265,3.4353688 2.36893,6.2665151 3.66103,12.8563913 4.94513,19.4094372 1.72368,9.291714 2.85445,18.67622 3.8702,28.067023 0.46967,5.035259 1.10449,10.076429 1.01709,15.142363 -0.0901,1.004224 -0.007,0.521327 -0.23881,1.450642 -0.17243,0.917167 -3.98735,0.199922 -3.81491,-0.717246 v 0 c -0.15543,0.366146 -0.0594,0.223155 -0.18452,-0.4826 -0.71779,-4.914775 -1.47668,-9.823402 -2.15915,-14.743324 -1.30634,-9.259829 -2.52037,-18.532729 -3.94125,-27.776172 -1.01514,-6.3501726 -2.01211,-12.71402215 -3.58524,-18.9558273 -0.11163,-0.409367 -0.21988,-0.8196691 -0.33488,-1.2281006 -0.0685,-0.2434158 -0.2462,-0.4762933 -0.21571,-0.72733 0.0125,-0.102815 0.18785,0.1216885 0.29072,0.1096465 0.86346,-0.1010777 1.76156,-0.1245812 2.5699,-0.4445159 0.24553,-0.097181 0.3229,-1.0213683 0.28154,-0.5856287 -0.0408,0.8781693 0.0259,1.7622506 -0.0701,2.6389586 0,0.9286555 -3.8627,0.9286555 -3.8627,0 z"
       inkscape:connector-curvature="0" />
    <path
       style="opacity:1;fill:#000000;fill-opacity:1;stroke:#000000;stroke-width:0.26458332;stroke-linecap:butt;stroke-linejoin:round;stroke-miterlimit:4;stroke-dasharray:none;stroke-opacity:1"
       id="path847"
       d="m -178.54058,-6.9847292 c 1.2403,3.9071425 1.9847,7.95494503 2.82115,11.9622052 1.77783,8.723304 3.35606,17.486056 4.87384,26.257859 1.13238,6.633964 2.32499,13.261707 3.12082,19.9464 0.16566,1.471025 0.32917,2.957586 0.0973,4.427924 -0.0438,0.941043 -3.95801,0.758928 -3.91422,-0.182116 v 0 c -0.46807,-1.090914 -0.30712,-2.429208 -0.75862,-3.525588 -1.36271,-6.570245 -2.85293,-13.114616 -4.0432,-19.719904 -1.59634,-8.759262 -3.1163,-17.532351 -4.404,-26.3431599 -0.57994,-3.994139 -1.13896,-7.992901 -1.61268,-12.0010691 -0.19776,-0.9183026 3.62188,-1.7408538 3.81963,-0.8225512 z"
       inkscape:connector-curvature="0" />
    <path
       style="opacity:1;fill:#000000;fill-opacity:1;stroke:#000000;stroke-width:0.26458332;stroke-linecap:butt;stroke-linejoin:round;stroke-miterlimit:4;stroke-dasharray:none;stroke-opacity:1"
       id="path849"
       d="m -185.47331,28.968655 c 1.49099,-0.113946 2.99605,0.0036 4.48759,0.0792 1.0126,0.115338 0.53286,4.327234 -0.47974,4.211897 v 0 c -1.39891,-0.120637 -2.79506,-0.263991 -4.19046,-0.41888 -0.93094,-0.0439 -0.74834,-3.916117 0.18261,-3.872214 z"
       inkscape:connector-curvature="0" />
    <path
       style="opacity:1;fill:#000000;fill-opacity:1;stroke:#000000;stroke-width:0.26458332;stroke-linecap:butt;stroke-linejoin:round;stroke-miterlimit:4;stroke-dasharray:none;stroke-opacity:1"
       id="path851"
       d="m -150.02517,27.163469 c 0.54764,-0.601083 1.09515,-1.197642 1.60981,-1.827997 0.0807,-0.101476 0.16202,-0.202536 0.24224,-0.304428 0.11138,-0.141469 0.16064,-0.380308 0.33547,-0.423359 0.046,-0.01131 -0.0892,0.102406 -0.0522,0.131998 3.09949,2.483875 3.69071,1.157705 2.80216,2.678463 -1.85732,2.662465 -3.70422,5.33137 -5.5105,8.029276 -2.73001,4.074634 -5.13563,8.349506 -7.52983,12.625652 -1.18702,2.083567 -2.28482,4.223861 -3.69314,6.169961 -0.51155,0.839391 -4.00295,-1.288375 -3.4914,-2.127765 v 0 c 1.06807,-2.036406 1.98436,-4.149024 3.05441,-6.184847 2.33016,-4.514173 4.78711,-8.969389 7.77069,-13.093542 1.94823,-2.681033 3.93134,-5.339574 6.16354,-7.794395 1.3011,-1.443235 0.58513,-1.002595 3.93981,1.258521 0.1132,0.0763 -0.79162,1.326083 -0.88552,1.442616 -0.59008,0.753134 -1.21675,1.479259 -1.96399,2.082803 -0.64021,0.671121 -3.43171,-1.991836 -2.7915,-2.662957 z"
       inkscape:connector-curvature="0" />
    <path
       style="opacity:1;fill:#000000;fill-opacity:1;stroke:#000000;stroke-width:0.26458332;stroke-linecap:butt;stroke-linejoin:round;stroke-miterlimit:4;stroke-dasharray:none;stroke-opacity:1"
       id="path853"
       d="m -168.45194,29.070474 c -0.64356,-0.544988 -1.23028,-1.153488 -1.81665,-1.758516 -1.27608,-1.335008 -0.72946,-1.165777 2.7445,-2.729451 0.008,-0.0035 0.67923,0.744431 1.10224,1.214076 2.53883,2.980688 4.96489,6.058014 7.40847,9.117286 3.20342,4.028752 6.42493,8.042772 9.7379,11.982103 1.34134,1.694032 2.88871,3.228022 4.18475,4.958609 0.68196,0.646941 -2.00895,3.483538 -2.69092,2.836598 v 0 c -1.8998,-1.348185 -3.41616,-3.169002 -5.05139,-4.806638 -3.53967,-3.871087 -6.87407,-7.921543 -10.0263,-12.114906 -2.33138,-3.111894 -4.61186,-6.259221 -6.85327,-9.436306 -0.35378,-0.491852 -0.98262,-1.35328 -0.96258,-1.3828 2.07573,-3.0575 1.9177,-3.642889 3.25761,-2.358293 0.60455,0.585917 1.21268,1.172113 1.75714,1.81528 0.64022,0.671122 -2.15128,3.334079 -2.7915,2.662958 z"
       inkscape:connector-curvature="0" />
    <path
       style="opacity:1;fill:#000000;fill-opacity:1;stroke:#000000;stroke-width:0.26458332;stroke-linecap:butt;stroke-linejoin:round;stroke-miterlimit:4;stroke-dasharray:none;stroke-opacity:1"
       id="path855"
       d="m -183.7299,28.222768 c 1.06421,-0.270627 2.15727,-0.407128 3.24617,-0.534755 1.11866,-0.221784 2.23159,-0.03184 3.34485,0.07018 0.17341,0.0021 -0.0112,0.02376 0.31012,-0.02183 0.88063,-0.269271 2.00066,3.393673 1.12003,3.662948 v 0 c -0.60994,0.17858 -1.23825,0.265186 -1.87576,0.23763 -0.74595,-0.04388 -1.49384,-0.123563 -2.23712,0.0082 -1.03588,0.133533 -2.07245,0.267235 -3.11298,0.358693 -0.90904,0.191209 -1.70435,-3.589893 -0.79531,-3.781102 z"
       inkscape:connector-curvature="0" />
    <path
       style="opacity:1;fill:#000000;fill-opacity:1;stroke:#000000;stroke-width:0.26458332;stroke-linecap:butt;stroke-linejoin:round;stroke-miterlimit:4;stroke-dasharray:none;stroke-opacity:1"
       id="path857"
       d="m -179.05541,30.44549 c -0.85356,0.519319 -1.7574,0.950653 -2.6571,1.383041 -0.45241,0.05311 -1.95629,1.24909 -0.80961,0.0977 -1.24814,-3.421626 -1.44311,-2.888509 1.00673,-3.232158 1.33823,-0.192143 2.67282,-0.441767 3.98881,-0.752623 0.19777,-0.05137 0.39554,-0.102748 0.59331,-0.154123 0.92631,-0.294327 2.15055,3.558615 1.22424,3.852942 v 0 c -0.23626,0.06809 -0.47252,0.136179 -0.70879,0.204267 -1.4496,0.355618 -2.92099,0.641074 -4.40321,0.819242 -0.46043,0.0559 -3.3268,0.393301 -3.49423,0.152816 -0.62807,-0.902121 -0.92708,-1.993414 -1.39062,-2.99012 0.62047,-0.670968 1.26259,-1.117687 2.10099,-1.487908 0.88668,-0.460844 1.77508,-0.925423 2.70359,-1.297308 0.81843,-0.443783 2.66432,2.960452 1.84589,3.404235 z"
       inkscape:connector-curvature="0" />
  </g>
</svg>
